# AST/ASF file generated using VICON BodyLanguage
# -----------------------------------------------
:version 1.10
:name VICON
:units
  mass 1.0
  length 0.45
  angle deg
:documentation
   .ast/.asf automatically generated from VICON data using
   VICON BodyBuilder and BodyLanguage model FoxedUp or BRILLIANT.MOD
:root
   order TX TY TZ RX RY RZ
   axis XYZ
   position 0 0 0  
   orientation 0 0 0 
:bonedata
  begin
     id 1 
     name lhipjoint
     direction 0.627457 -0.725269 0.283342 
     length 2.53237 
     axis 0 0 0  XYZ
  end
  begin
     id 2 
     name lfemur
     direction 0.34202 -0.939693 0  
     length 7.32496  
     axis 0 0 20  XYZ
    dof rx ry rz
    limits (-160.0 20.0)
           (-70.0 70.0)
           (-60.0 70.0)
  end
  begin
     id 3 
     name ltibia
     direction 0.34202 -0.939693 0   
     length 7.69674   
     axis 0 0 20   XYZ
    dof rx
    limits (-10.0 170.0)
  end
  begin
     id 4 
     name lfoot
     direction 0.127289 -0.349722 0.928166   
     length 1.8612   
     axis -90 7.62852e-016 20   XYZ
    dof rx rz
    limits (-45.0 90.0)
           (-70.0 20.0)
  end
  begin
     id 5 
     name ltoes
     direction 1.53561e-011 -4.21864e-011 1   
     length 0.925608   
     axis -90 7.62852e-016 20   XYZ
    dof rx
    limits (-90.0 20.0)
  end
  begin
     id 6 
     name rhipjoint
     direction -0.609094 -0.738725 0.288599   
     length 2.48624  
     axis 0 0 0  XYZ 
  end
  begin
     id 7 
     name rfemur
     direction -0.34202 -0.939693 0   
     length 7.44259   
     axis 0 0 -20   XYZ
    dof rx ry rz
    limits (-160.0 20.0)
           (-70.0 70.0)
           (-70.0 60.0)
  end
  begin
     id 8 
     name rtibia
     direction -0.34202 -0.939693 0   
     length 7.7781   
     axis 0 0 -20   XYZ
    dof rx
    limits (-10.0 170.0)
 end
 begin
     id 9 
     name rfoot
     direction -0.107015 -0.294021 0.949789   
     length 2.14741  
     axis -90 -7.62852e-016 -20   XYZ
    dof rx rz
    limits (-45.0 90.0)
           (-20.0 70.0)
  end
  begin
     id 10 
     name rtoes
     direction -1.53497e-011 -4.21924e-011 1   
     length 1.0706   
     axis -90 -7.62852e-016 -20   XYZ
    dof rx
    limits (-90.0 20.0)
  end
  begin
     id 11 
     name lowerback
     direction -0.0142066 0.998112 -0.0597545   
     length 1.86627   
     axis 0 0 0   XYZ
    dof rx ry rz
    limits (-20.0 45.0)
           (-30.0 30.0)
           (-30.0 30.0)
  end
  begin
     id 12 
     name upperback
     direction 0.00547294 0.999744 0.0219437   
     length 1.86272   
     axis 0 0 0   XYZ
    dof rx ry rz
    limits (-20.0 45.0)
           (-30.0 30.0)
           (-30.0 30.0)
  end
  begin
     id 13 
     name thorax
     direction 0.0116162 0.998704 0.0495538   
     length 1.8703   
     axis 0 0 0   XYZ
    dof rx ry rz
    limits (-20.0 45.0)
           (-30.0 30.0)
           (-30.0 30.0)
  end
  begin
     id 14 
     name lowerneck
     direction -0.0106574 0.998739 0.0490586   
     length 1.8074   
     axis 0 0 0   XYZ
    dof rx ry rz
    limits (-20.0 45.0)
           (-30.0 30.0)
           (-30.0 30.0)
  end
  begin
     id 15 
     name upperneck
     direction 0.030527 0.976587 -0.212944   
     length 1.80681   
     axis 0 0 0   XYZ
    dof rx ry rz
    limits (-20.0 45.0)
           (-30.0 30.0)
           (-30.0 30.0)
  end
  begin
     id 16
     name head
     direction 0.00869225 0.997035 -0.0764531  
     length 1.8313  
     axis 0 0 0   XYZ
    dof rx ry rz
    limits (-20.0 45.0)
           (-30.0 30.0)
           (-30.0 30.0)
  end
  begin
     id 17 
     name lclavicle
     direction 0.915958 0.399447 0.0382386  
     length 3.78965  
     axis 0 0 0   XYZ
    dof ry rz
    limits (-20.0 10.0)
           (0.0 20.0)
  end
  begin
     id 18 
     name lhumerus
     direction 1 -4.48967e-011 3.19303e-027   
     length 4.78095   
     axis -180 -30 -90   XYZ
    dof rx ry rz
    limits (-60.0 90.0)
           (-90.0 90.0)
           (-90.0 90.0)
  end
  begin
     id 19
     name lradius
     direction 1 -4.48967e-011 -3.77974e-027   
     length 3.58615   
     axis -180 -30 -90   XYZ
    dof rx
    limits (-10.0 170.0)
  end
  begin
     id 20
     name lwrist
     direction 1 -4.48927e-011 1.2807e-027   
     length 1.79307   
     axis 1.91374e-015 90 90   XYZ
    dof ry
    limits (-180.0 0.0)
 end
  begin
     id 21 
     name lhand
     direction 1 -4.49036e-011 2.5614e-027   
     length 0.659812   
     axis -1.63439e-015 90 90   XYZ
    dof rx rz
    limits (-90.0 90.0)
           (-45.0 45.0)
  end
  begin
     id 22 
     name lfingers
     direction 1 -4.49052e-011 5.1228e-027   
     length 0.531957   
     axis -3.26879e-015 90 90   XYZ
    dof rx
    limits (0.0 90.0)
  end
  begin
     id 23
     name lthumb
     direction 0.707107 -6.35012e-011 0.707107   
     length 0.763787   
     axis -90 45 2.85299e-015   XYZ
    dof rx rz
    limits (-45.0 45.0)
           (-45.0 45.0)
  end
  begin
     id 24 
     name rclavicle
     direction -0.895351 0.435135 0.0948887   
     length 3.70497  
     axis 0 0 0   XYZ 
    dof ry rz
    limits (-10.0 20.0)
           (-20.0 0.0)
  end
  begin
     id 25 
     name rhumerus
     direction -1 -4.48971e-011 2.38946e-027  
     length 4.48913   
     axis -180 30 90   XYZ
    dof rx ry rz
    limits (-90.0 60.0)
           (-90.0 90.0)
           (-90.0 90.0)
  end
  begin
     id 26 
     name rradius
     direction -1 -4.4895e-011 4.38668e-027   
     length 3.7051   
     axis -180 30 90   XYZ
    dof rx
    limits (-10.0 170.0)
  end
  begin
     id 27 
     name rwrist
     direction -1 -4.49007e-011 1.2807e-027   
     length 1.85255   
     axis 1.91374e-015 -90 -90   XYZ
    dof ry
    limits (-180.0 0.0)
  end
  begin
     id 28
     name rhand
     direction -1 -4.48851e-011 2.5614e-027   
     length 0.449136   
     axis -1.63439e-015 -90 -90   XYZ
    dof rx rz
    limits (-90.0 90.0)
           (-45.0 45.0)
  end
  begin
     id 29
     name rfingers
     direction -1 -4.49128e-011 5.1228e-027   
     length 0.362105   
     axis -3.26879e-015 -90 -90   XYZ
    dof rx
    limits (0.0 90.0)
  end
  begin
     id 30
     name rthumb
     direction -0.707107 -6.34851e-011 0.707107   
     length 0.519912   
     axis -90 -45 -2.85299e-015   XYZ
    dof rx rz
    limits (-45.0 45.0)
           (-45.0 45.0)
  end
:hierarchy
  begin
    root lhipjoint rhipjoint lowerback
    lhipjoint lfemur
    lfemur ltibia
    ltibia lfoot
    lfoot ltoes
    rhipjoint rfemur
    rfemur rtibia
    rtibia rfoot
    rfoot rtoes
    lowerback upperback
    upperback thorax
    thorax lowerneck lclavicle rclavicle
    lowerneck upperneck
    upperneck head
    lclavicle lhumerus
    lhumerus lradius
    lradius lwrist
    lwrist lhand lthumb
    lhand lfingers
    rclavicle rhumerus
    rhumerus rradius
    rradius rwrist
    rwrist rhand rthumb
    rhand rfingers
  end

#!OML:ASF I:\Actors\actors\Patient Classification 2\Patient 1\Session 1\actor1.ASF
:FULLY-SPECIFIED
:DEGREES
19
root -0.578968 18.6815 5.75109 2.35493 -5.30171 0.208474
lowerback 1.11787 1.19675 -3.38034
upperback -2.45946 1.52076 0.546996
thorax -3.26244 0.850761 2.39655
lowerneck -14.167 -1.74468 -1.6086
upperneck 22.2587 -2.7638 2.88859
head 9.41794 -1.10734 0.92725
rclavicle -3.84563e-015 2.45996e-015
rhumerus -49.0583 -1.05851 -85.9477
rradius 43.4113
rwrist 10.2759
rhand -8.71114 -42.6318
rfingers 7.12502
rthumb 17.2245 -71.8885
lclavicle -3.84563e-015 2.45996e-015
lhumerus -42.0219 -1.77436 91.195
lradius 37.4609
lwrist -1.24725
lhand -4.57926 -20.9546
lfingers 7.12502
lthumb 21.1976 7.90642
rfemur 0 0 0
rtibia 0
rfoot 0 0
rtoes 0
lfemur -2.86011 -7.35306 -15.5536
ltibia 19.4239
lfoot -24.6671 17.5581
ltoes -53.7845
20
root -0.579187 18.6815 5.7499 2.34594 -5.31019 0.224337
lowerback 1.1302 1.19047 -3.40792
upperback -2.46794 1.51105 0.546904
thorax -3.27836 0.846994 2.41198
lowerneck -14.2609 -1.71453 -1.4826
upperneck 22.3904 -2.71587 2.72553
head 9.47623 -1.09061 0.85541
rclavicle -7.84268e-016 -1.82633e-015
rhumerus -49.0984 -0.972241 -86.0294
rradius 43.5891
rwrist 10.4765
rhand -9.21858 -42.013
rfingers 7.12502
rthumb 16.736 -71.3117
lclavicle -7.84268e-016 -1.82633e-015
lhumerus -42.0337 -1.78153 91.1993
lradius 37.4653
lwrist -1.22941
lhand -4.59009 -20.9232
lfingers 7.12502
lthumb 21.1872 7.93894
rfemur 0 0 0
rtibia 0
rfoot 0 0
rtoes 0
lfemur -2.84381 -7.39959 -15.5801
ltibia 19.4118
lfoot -24.6912 17.6056
ltoes -53.8038
21
root -0.579091 18.6817 5.74966 2.34739 -5.30973 0.249667
lowerback 1.13015 1.18781 -3.42516
upperback -2.47663 1.5066 0.536478
thorax -3.28725 0.845326 2.41098
lowerneck -14.2241 -1.7213 -1.43585
upperneck 22.3792 -2.7233 2.66978
head 9.46405 -1.09679 0.827598
rclavicle -6.7416e-015 5.51627e-015
rhumerus -49.1364 -0.951799 -86.0477
rradius 43.6147
rwrist 10.495
rhand -9.53921 -42.1719
rfingers 7.12502
rthumb 16.4273 -71.4964
lclavicle -6.7416e-015 5.51627e-015
lhumerus -42.0372 -1.80032 91.2019
lradius 37.458
lwrist -1.2287
lhand -4.58751 -20.8595
lfingers 7.12502
lthumb 21.1897 8.00241
rfemur 0 0 0
rtibia 0
rfoot 0 0
rtoes 0
lfemur -2.8394 -7.39737 -15.6124
ltibia 19.3974
lfoot -24.6579 17.6298
ltoes -53.8916
22
root -0.578693 18.682 5.74975 2.34219 -5.30921 0.249331
lowerback 1.12953 1.18385 -3.41193
upperback -2.47204 1.50195 0.542664
thorax -3.2816 0.842602 2.41021
lowerneck -14.2045 -1.73034 -1.44169
upperneck 22.3594 -2.73045 2.65473
head 9.45344 -1.10266 0.822589
rclavicle -2.47968e-014 -1.97604e-014
rhumerus -49.1297 -0.919803 -86.0429
rradius 43.6303
rwrist 10.4349
rhand -9.48916 -43.0678
rfingers 7.12502
rthumb 16.4755 -72.3883
lclavicle -2.47968e-014 -1.97604e-014
lhumerus -42.0096 -1.78029 91.2091
lradius 37.4215
lwrist -1.249
lhand -4.57906 -20.8404
lfingers 7.12502
lthumb 21.1978 8.02062
rfemur 0 0 0
rtibia 0
rfoot 0 0
rtoes 0
lfemur -2.83012 -7.38923 -15.6165
ltibia 19.3941
lfoot -24.6301 17.6358
ltoes -53.9211
23
root -0.578648 18.6826 5.74968 2.3399 -5.31842 0.258306
lowerback 1.11062 1.17903 -3.42588
upperback -2.46491 1.49614 0.550613
thorax -3.26378 0.839779 2.42697
lowerneck -14.2283 -1.73059 -1.49532
upperneck 22.3855 -2.73044 2.7046
head 9.46858 -1.10122 0.848714
rclavicle -8.27305e-015 -1.31695e-015
rhumerus -49.0972 -0.89278 -86.0362
rradius 43.6127
rwrist 10.3796
rhand -9.45897 -43.4509
rfingers 7.12502
rthumb 16.5046 -72.769
lclavicle -8.27305e-015 -1.31695e-015
lhumerus -42 -1.75929 91.217
lradius 37.4269
lwrist -1.25175
lhand -4.58411 -20.8336
lfingers 7.12502
lthumb 21.193 8.02797
rfemur 0 0 0
rtibia 0
rfoot 0 0
rtoes 0
lfemur -2.82541 -7.40977 -15.6308
ltibia 19.3968
lfoot -24.6495 17.6606
ltoes -53.9016
